<svg width="279" height="82" viewBox="0 0 279 82" fill="none" xmlns="http://www.w3.org/2000/svg">
<path d="M112.71 53.7349C110.964 53.7349 109.392 53.4356 107.996 52.8369C106.599 52.2133 105.501 51.3403 104.703 50.2178C103.905 49.0953 103.506 47.7858 103.506 46.2891H108.07C108.17 47.4116 108.607 48.3345 109.38 49.0579C110.178 49.7813 111.288 50.143 112.71 50.143C114.182 50.143 115.329 49.7938 116.152 49.0953C116.975 48.3719 117.387 47.449 117.387 46.3265C117.387 45.4535 117.125 44.7426 116.601 44.1938C116.102 43.645 115.466 43.221 114.693 42.9217C113.945 42.6223 112.897 42.2981 111.55 41.9488C109.854 41.4998 108.469 41.0508 107.397 40.6019C106.349 40.1279 105.451 39.4045 104.703 38.4317C103.955 37.4589 103.58 36.1618 103.58 34.5404C103.58 33.0438 103.955 31.7342 104.703 30.6117C105.451 29.4893 106.499 28.6287 107.846 28.03C109.193 27.4314 110.752 27.132 112.523 27.132C115.042 27.132 117.1 27.7681 118.697 29.0403C120.318 30.2875 121.216 32.0086 121.391 34.2037H116.676C116.601 33.2558 116.152 32.4451 115.329 31.7716C114.506 31.0981 113.421 30.7614 112.074 30.7614C110.852 30.7614 109.854 31.0732 109.081 31.6968C108.307 32.3204 107.921 33.2184 107.921 34.3908C107.921 35.189 108.158 35.85 108.632 36.3738C109.13 36.8727 109.754 37.2718 110.502 37.5711C111.251 37.8705 112.273 38.1947 113.571 38.544C115.292 39.0179 116.689 39.4918 117.761 39.9658C118.859 40.4397 119.782 41.1756 120.53 42.1733C121.303 43.1461 121.69 44.4557 121.69 46.102C121.69 47.4241 121.328 48.6713 120.605 49.8436C119.906 51.016 118.871 51.9639 117.499 52.6873C116.152 53.3857 114.556 53.7349 112.71 53.7349ZM131.699 36.3364V47.7483C131.699 48.5216 131.874 49.0828 132.223 49.4321C132.597 49.7563 133.221 49.9185 134.094 49.9185H136.713V53.473H133.346C131.425 53.473 129.953 53.024 128.93 52.126C127.908 51.228 127.396 49.7688 127.396 47.7483V36.3364H124.964V32.8567H127.396V27.7307H131.699V32.8567H136.713V36.3364H131.699ZM149.587 53.8098C147.641 53.8098 145.883 53.3732 144.311 52.5002C142.74 51.6022 141.505 50.355 140.607 48.7586C139.709 47.1372 139.26 45.2664 139.26 43.1461C139.26 41.0508 139.721 39.1925 140.644 37.5711C141.567 35.9498 142.827 34.7026 144.423 33.8295C146.02 32.9565 147.803 32.52 149.774 32.52C151.744 32.52 153.528 32.9565 155.124 33.8295C156.721 34.7026 157.98 35.9498 158.903 37.5711C159.826 39.1925 160.288 41.0508 160.288 43.1461C160.288 45.2415 159.814 47.0998 158.866 48.7212C157.918 50.3425 156.621 51.6022 154.975 52.5002C153.353 53.3732 151.557 53.8098 149.587 53.8098ZM149.587 50.1056C150.684 50.1056 151.707 49.8436 152.655 49.3198C153.628 48.796 154.413 48.0102 155.012 46.9626C155.611 45.9149 155.91 44.6428 155.91 43.1461C155.91 41.6495 155.623 40.3898 155.05 39.3671C154.476 38.3195 153.715 37.5337 152.767 37.0099C151.819 36.4861 150.797 36.2242 149.699 36.2242C148.601 36.2242 147.579 36.4861 146.631 37.0099C145.708 37.5337 144.972 38.3195 144.423 39.3671C143.875 40.3898 143.6 41.6495 143.6 43.1461C143.6 45.3662 144.161 47.0873 145.284 48.3096C146.431 49.5069 147.866 50.1056 149.587 50.1056ZM168.77 35.85C169.393 34.8023 170.217 33.9917 171.239 33.418C172.287 32.8193 173.522 32.52 174.944 32.52V36.9351H173.858C172.187 36.9351 170.915 37.3591 170.042 38.2072C169.194 39.0553 168.77 40.527 168.77 42.6223V53.473H164.504V32.8567H168.77V35.85ZM197.759 42.6597C197.759 43.433 197.71 44.1314 197.61 44.755H181.858C181.982 46.4014 182.593 47.7234 183.691 48.7212C184.789 49.7189 186.136 50.2178 187.732 50.2178C190.027 50.2178 191.648 49.2575 192.596 47.3368H197.198C196.575 49.2325 195.44 50.7915 193.793 52.0138C192.172 53.2111 190.152 53.8098 187.732 53.8098C185.761 53.8098 183.99 53.3732 182.419 52.5002C180.872 51.6022 179.65 50.355 178.752 48.7586C177.879 47.1372 177.443 45.2664 177.443 43.1461C177.443 41.0259 177.867 39.1676 178.715 37.5711C179.588 35.9498 180.798 34.7026 182.344 33.8295C183.916 32.9565 185.711 32.52 187.732 32.52C189.678 32.52 191.411 32.944 192.933 33.7921C194.454 34.6402 195.639 35.8375 196.487 37.3841C197.335 38.9057 197.759 40.6642 197.759 42.6597ZM193.307 41.3128C193.282 39.7413 192.721 38.4816 191.623 37.5337C190.526 36.5859 189.166 36.1119 187.545 36.1119C186.073 36.1119 184.814 36.5859 183.766 37.5337C182.718 38.4567 182.095 39.7163 181.895 41.3128H193.307ZM217.784 38.1324V41.7243H202.406V38.1324H217.784ZM228.11 25.7851V53.473H223.844V25.7851H228.11ZM235.88 30.1253C235.107 30.1253 234.458 29.8634 233.934 29.3396C233.41 28.8158 233.148 28.1672 233.148 27.394C233.148 26.6207 233.41 25.9721 233.934 25.4483C234.458 24.9245 235.107 24.6626 235.88 24.6626C236.628 24.6626 237.264 24.9245 237.788 25.4483C238.312 25.9721 238.574 26.6207 238.574 27.394C238.574 28.1672 238.312 28.8158 237.788 29.3396C237.264 29.8634 236.628 30.1253 235.88 30.1253ZM237.975 32.8567V53.473H233.71V32.8567H237.975ZM248.552 36.3364V47.7483C248.552 48.5216 248.726 49.0828 249.075 49.4321C249.45 49.7563 250.073 49.9185 250.946 49.9185H253.565V53.473H250.198C248.277 53.473 246.806 53.024 245.783 52.126C244.76 51.228 244.249 49.7688 244.249 47.7483V36.3364H241.817V32.8567H244.249V27.7307H248.552V32.8567H253.565V36.3364H248.552ZM276.392 42.6597C276.392 43.433 276.342 44.1314 276.242 44.755H260.49C260.615 46.4014 261.226 47.7234 262.323 48.7212C263.421 49.7189 264.768 50.2178 266.364 50.2178C268.659 50.2178 270.281 49.2575 271.228 47.3368H275.831C275.207 49.2325 274.072 50.7915 272.426 52.0138C270.804 53.2111 268.784 53.8098 266.364 53.8098C264.394 53.8098 262.623 53.3732 261.051 52.5002C259.505 51.6022 258.282 50.355 257.384 48.7586C256.511 47.1372 256.075 45.2664 256.075 43.1461C256.075 41.0259 256.499 39.1676 257.347 37.5711C258.22 35.9498 259.43 34.7026 260.976 33.8295C262.548 32.9565 264.344 32.52 266.364 32.52C268.31 32.52 270.044 32.944 271.565 33.7921C273.087 34.6402 274.272 35.8375 275.12 37.3841C275.968 38.9057 276.392 40.6642 276.392 42.6597ZM271.939 41.3128C271.914 39.7413 271.353 38.4816 270.256 37.5337C269.158 36.5859 267.799 36.1119 266.177 36.1119C264.706 36.1119 263.446 36.5859 262.398 37.5337C261.351 38.4567 260.727 39.7163 260.527 41.3128H271.939Z" fill="#FA7275"/>
<rect opacity="0.2" width="74.8323" height="74.8323" rx="37.4161" fill="#FA7275"/>
<rect x="32.7393" y="31.1801" width="49.8882" height="49.8882" rx="24.9441" fill="#FA7275"/>
</svg>
